<svg xmlns="http://www.w3.org/2000/svg" viewBox="0 0 180.3 48.8" width="180.3" height="48.8"><defs><linearGradient id="a" x1="118.38" y1="44.84" x2="118.38" y2="7.7" gradientUnits="userSpaceOnUse"><stop offset="0" stop-color="#4d4d4d"/><stop offset="1" stop-color="#0a0a0a"/><stop offset="1" stop-color="#212121"/></linearGradient><linearGradient id="b" x1="7.57" y1="28.21" x2="5.25" y2="4.2" gradientUnits="userSpaceOnUse"><stop offset="0" stop-color="#a38862"/><stop offset="0.6" stop-color="#cbac7f"/></linearGradient><linearGradient id="c" x1="29.89" y1="27.77" x2="49.27" y2="8.39" gradientUnits="userSpaceOnUse"><stop offset="0" stop-color="#b79b71"/><stop offset="1" stop-color="#cbac7f"/></linearGradient><linearGradient id="d" x1="8.23" y1="21.37" x2="17.17" y2="21.37" gradientUnits="userSpaceOnUse"><stop offset="0" stop-color="#6667b8"/><stop offset="1" stop-color="#6e6fba"/></linearGradient></defs><path d="M70,10.5C61,11.8,56.8,18,56.5,22.9s1.5,7,4.1,7.3,5.1-2.7,4.9-3.2-.5-.5-.8-.4-3.5-2.1-2.9-5.4,3-7.7,7.8-9,8,1.1,8.6,5.7-1,7-1.6,7.8c-2.2,3-3,1.7-4.1,2.9s-.7,2.6,3.3,1.2,6-5.6,6.9-8.6S83.5,8.6,70,10.5Zm.8,18.9a39.1,39.1,0,0,1,1.3-13.1c.5-2.1.5-3.1-.4-2.9s-4.4,5-5,17.7c.2,8.8,1.2,12.1,3.7,12.3s5-3.3,3.7-4.9A14.2,14.2,0,0,1,70.8,29.4ZM105,17.9c-2,.8-.1,2,1.2,4.1s1.6,9.3-.4,10.7-2.2-6.8-2.2-9.4-2.2-2.8-3.1-2.1,0,6.7,0,8.6-.9,3-1.7,2.9-1.2-6.8-.8-11.1c.3-1.9-3.9-2-3.3,4.5s-.1,6.6-1.3,7.5-2.9-2.5-1.6-8.7-1-4.6-1.7-3.3c-.9-.7-7-.9-8.6,7s1.8,9.9,3.7,9.9,2.9-3.3,2.9-3.3.2,3.4,2.9,3.4,3.4-1.1,4.2-3.6c.4,3,1.5,4,3.6,3.9s2.9-3.6,2.9-4.5c.3,2.4,1.7,4.7,3.8,4.6s4-9.1,4-14.5S107.6,17,105,17.9ZM89.2,25.1c-.5,2.6-.9,7.8-2.8,7.5s-2.2-4.1-1.2-6.9S89.7,22.1,89.2,25.1Zm35.4,4.3c-1.8-.3-1.3,2.9-2.7,2.7s-1.2-3.1-.5-6.2,2.6-5.5.7-6.7-3.8.6-4.9,2.4-1,.3-.7-.3.2-1.5-.3-1.8-4.1,1.9-5.3,8.2-.7,11.4,2.2,12,4.2-1.9,3.3-3.3-2.3-6.9-1.2-9.9a3.3,3.3,0,0,1,2.3-2.3c1.4-.4,1.5.8,1,3.5s.1,10.6,3.7,10.1S126.8,29.8,124.6,29.4ZM153,14.2c-.7-7.1-13.7-9.8-22.6-.8S126.7,29,130,29s5.8-2.9,3.3-3.7-3.4-4.4-2.5-7a13.3,13.3,0,0,1,10.7-7.8c7.9-.6,7.2,10.7,3.7,14s-4.5,1.2-4.3,2.7.8.6,1.6.8c8.7,2.3,5.8,14.4.8,13.9s-4.9-13.8-3.4-21.5.8-6.6.8-6.6-2.2-.3-4.1,7.8c-4.3,16.7-.2,20.8,2.3,22.1,4.7,2.5,9.8,1.1,12.5-6.2,1.9-5.4-1.3-10.7-4.1-11.4A12.3,12.3,0,0,0,153,14.2Zm26.3,16.1c-1.7-2.4-4.7-2.4-5.4-1.6s1.5,1,2.5,3.7-.8,6.2-2.9,5.7-3.2-2.6-3.6-8.3c-.4-4.2.1-6.5,2.7-6.1s3.1,2.2,4.6.1-1.7-4.4-6.7-2.7c.6-1.6,2-3.9.1-4.3s-4.6,2.6-4.5,11.5c.1,5-2.1,6.7-2.4,4.1a47.5,47.5,0,0,1,.4-9c.3-2.6-1.7-2.1-2.9-.5-1.6-.5-6.5-1.1-7.8,6.6-.7,5.2,1,9.5,3.7,9.5s3.1-2.5,3.1-2.5.4,3.2,2.7,3.3,3.4-2.9,4.1-5c.3,1.6,1.5,5.6,7.3,5.7S181.6,33.7,179.3,30.3Zm-18-3.4c-.3,3.4-.3,7.8-2.6,7.5s-2.5-1.4-1.6-6.1,2.5-4.3,3.7-4.1S161.5,25,161.3,26.9Z" fill="url(#a)"/><path d="M9.4,23.3c.1-1.6.1-2.6.2-4H9.4a4.7,4.7,0,0,1-4-4.6c0-2.2,1.3-4.1,2.6-5.8,0,1.7-.4,4,1.3,5.1a5.9,5.9,0,0,1,1.5-5.1A1.7,1.7,0,0,0,11.3,7c-.6-2.1-.4-4.9-2.4-6.2S5.2,2,4,3.4C.3,8.4,0,15.2,1.3,21.1a19.5,19.5,0,0,0,2.5,5.5c0-.1,2.7,3,2.7,3M2.8,18.2c0-.6.2-1.5.9-1.7a2.2,2.2,0,0,1,1.6.9A4.4,4.4,0,0,0,2.8,18.2Zm2.6,1.7c.8-.4,1.7.2,2.2.7a3.8,3.8,0,0,0-3,2.2A3.1,3.1,0,0,1,5.4,19.9Z" fill="url(#b)"/><path d="M42.8,2.3c5.4,3.2,10.7,18.3-5.9,32.5a29.5,29.5,0,0,1-11.7,11,19.3,19.3,0,0,1-8.7,2.4c1.9-.3-7.5.1-9.4-3.9s-.6-5.6.6-7.9a16.4,16.4,0,0,1-.4-1.9s-.8-.9-.8-4.9a9.1,9.1,0,0,1,2.9-6.3l12.3-.7s2.6-.1,6.5,2.5c0,0,2.5-9.9,5.6-14.8a24.2,24.2,0,0,1,5.1-7.2A3.1,3.1,0,0,1,42.8,2.3Z" fill="#d5b586"/><path d="M5.4,19.9c.8-.4,1.7.2,2.2.7a3.8,3.8,0,0,0-3,2.2A3.1,3.1,0,0,1,5.4,19.9Z" fill="#d5b586"/><path d="M5.3,17.4a4.4,4.4,0,0,0-2.5.8c0-.6.2-1.5.9-1.7A2.2,2.2,0,0,1,5.3,17.4Z" fill="#d5b586"/><path d="M42.8,2.3c2.1,1.1,3.3,3.3,4.2,5.5a16.6,16.6,0,0,1,.7,10.1C46.4,24.7,42,30.3,36.9,34.8c-.9-2.2-3.1-3.5-4.6-5.3s-1.4-1.8-.5-2.5a9.4,9.4,0,0,0,3.3-4.3c1.7-4.2,2.1-8.9,2.1-13.4S39.5,2.8,42.8,2.3Zm-5,17.2c1.5-.4,3.1-1,4.6-.6s1.2,1,1.5,1.7c.6-1.2.1-3.2-1.5-3.3A6.9,6.9,0,0,0,37.8,19.5Zm-2.1,4.2c1.3-.4,2.7-1.1,4-.4s.9,1.5,1.1,2.4c1.1-1.2.8-3.5-.8-3.9S36.9,22.6,35.7,23.7Zm-1.8,3.7a4.8,4.8,0,0,1,3.5.3c.7.5.8,1.5,1,2.3.6-1,.6-2.7-.5-3.4S35,26.6,33.9,27.4Z" fill="url(#c)"/><path d="M47.4,20.8A34.5,34.5,0,0,1,38.9,34l-.7.6c-1.6,1.9-2.8,4.1-4.7,5.7A32.2,32.2,0,0,1,25.9,46c-4.2,2.3-9.4,3.6-14.1,2.2-2.7-.8-5.4-3.1-5.5-6.1,1.9-.3,3.7.4,5.6.8,3.5.7,7.9.1,9.7-3.4a6.2,6.2,0,0,1-4.7,4,12.2,12.2,0,0,1-2.7.1L12,43.4,9.2,43a15.2,15.2,0,0,0-2.1-.3H6.6c1.4,4,5.9,5.8,9.9,5.5a19.3,19.3,0,0,0,8.7-2.4,29.5,29.5,0,0,0,11.7-11c5.1-4.5,9.5-10.1,10.8-16.9A16.6,16.6,0,0,0,47,7.8c-.9-2.2-2.1-4.4-4.2-5.5a3.1,3.1,0,0,0-3.9.8,24.2,24.2,0,0,0-5.1,7.2,80.9,80.9,0,0,0-5.5,14.9h-.1l-.4-.6a56.8,56.8,0,0,1,3.3-10.1l.6-1.6c1.6-3.5,3.4-7.1,6.3-9.7s4.2-2.4,5.9-.7C48.8,7,49.5,14.7,47.4,20.8ZM6.2,42.1c-1.7-.4-2.2-2.6-1.5-4a3.2,3.2,0,0,1,2.6-1.6c-.2-.7-.3-1.4-.5-2.1l-2.2-.2c-.2-1.2,1.1-1.4,2-1.1s.1-1.9-.8-2.5.2-.8.7-.8C1.4,25.9-.5,19,.1,12.8a16.9,16.9,0,0,1,4-10.5C5.3,1.1,6.9-.1,8.7,0s1.6.9,2,1.7a21.3,21.3,0,0,1,1.6,6,7.6,7.6,0,0,1,2.6-.6,9.8,9.8,0,0,0-.8,5.6,11.7,11.7,0,0,0,1.7,3.8A14.7,14.7,0,0,0,19,19.9h-.3a17,17,0,0,1-4.6-5.7,8.2,8.2,0,0,1-.3-6.5c-2.8.9-4.8,4-3.9,6.9a3.7,3.7,0,0,1-2.4-4.1A6.3,6.3,0,0,0,6,15.9a6,6,0,0,0,3.4,3.4,4.7,4.7,0,0,1-4-4.6c0-2.2,1.3-4.1,2.6-5.8,0,1.7-.4,4,1.3,5.1a5.9,5.9,0,0,1,1.5-5.1A1.7,1.7,0,0,0,11.3,7c-.6-2.1-.4-4.9-2.4-6.2S5.2,2,4,3.4C.3,8.4,0,15.2,1.3,21.1a16.2,16.2,0,0,0,2.5,5.1,3.2,3.2,0,0,1,.4.7l2.3,2.7a9.2,9.2,0,0,1,3.8,6.3,10.3,10.3,0,0,0-3-1.4,5.8,5.8,0,0,0,.4,1.9,7.6,7.6,0,0,1,5.1,1.4,2,2,0,0,1,.8,2.3l-.6,1c.4-1.1.3-2.8-1-3.4s-4.3-1-6.1-.1S4.9,41,6.2,42.1Zm3.2-8a9.9,9.9,0,0,0-2.5-2.5,7.8,7.8,0,0,0,.2,1.6ZM7.5,39.2l.6,1c0-.7.1-1.6-.6-2.1a.9.9,0,0,0-1.2,1.3C6.5,40,7.2,39.6,7.5,39.2Zm2.9.2c-.7-.2-1,.6-1.2,1.1s0-1.9.8-2.4,2.3,1.5,1.2,2.2S10.3,39.8,10.4,39.4Z" fill="#907755"/><path d="M14.1,12.7c3.3-2.8,8-2.7,11.9-1.5.6-1.4,2.8-1,3.2.4a19.2,19.2,0,0,0,2.5,1.2l-.6,1.6c-2.7-1.2-5.8-2.5-8.7-1.2a6.1,6.1,0,0,0-2.6,4.2c-1-1.1-2.6-1.1-4-.9A11.7,11.7,0,0,1,14.1,12.7ZM21,23.8a16.9,16.9,0,0,0,2-3.6c-4.5-.5-13.4-.9-13.4-.9S8,23.5,8,23.5,9.8,23,21,23.8ZM41.3,40.4A16,16,0,0,0,38.9,34l-.7.6c-1.6,1.9-2.8,4.1-4.7,5.7a9.8,9.8,0,0,0,1.7,1.8,5.1,5.1,0,0,0,4.4,1.1A2.8,2.8,0,0,0,41.3,40.4ZM18.2,37.2l.7-.3c-.6-.1-.8-1-.1-1.1s.8.5.5,1l1.7-.5a2,2,0,0,0-2.6-2.1A1.9,1.9,0,0,0,18.2,37.2Z" fill="#6667b8"/><path d="M16.4,20c.9.3.9,1.8.5,2.7s-1.7.6-2.6.6H8.2a13.9,13.9,0,0,1,1.4-3.8A34.8,34.8,0,0,1,16.4,20Z" fill="url(#d)"/><path d="M15.2,30.2c2.1-1.4,5.4-1.2,6.9.9a8.1,8.1,0,0,1,1.3,4.8h0l-2.1.2a1.8,1.8,0,0,0-.9-1.9,1.8,1.8,0,0,0-2.2,0,2.1,2.1,0,0,0,0,2.9,22.9,22.9,0,0,0-2.7,1.4,8.1,8.1,0,0,1-1.2-1.4C13,35,13.1,31.8,15.2,30.2Zm3.7,6.7h.4c.3-.5.1-1.2-.5-1S18.3,36.8,18.9,36.9ZM9,44.6A8.8,8.8,0,0,0,9.2,43a15.2,15.2,0,0,0-2.1-.3C7.5,43.5,8,44.4,9,44.6Zm2.9.1a4.3,4.3,0,0,0,.1.5,2.8,2.8,0,0,0,2.2-1.6L12,43.4A6.2,6.2,0,0,0,11.9,44.7Z" fill="#edf2f3"/><path d="M22.4,13.2c2.9-1.3,6,0,8.7,1.2a56.8,56.8,0,0,0-3.3,10.1c-1.6-1.4-3.7-1.9-5.7-2.4l.9-1.9L20.6,20c0-.3-.1-.6-.1-.9a3.6,3.6,0,0,0-.7-1.7A6.1,6.1,0,0,1,22.4,13.2Z" fill="#7778bc"/><path d="M17.7,35a1.8,1.8,0,0,1,1.2-1.1,2,2,0,0,1,1.5.4,1.9,1.9,0,0,1,.9,1.9H21a2,2,0,0,0-.7-1.8A1.7,1.7,0,0,0,17.7,35Z" fill="#6060a3"/><path d="M9.9,14.6c-.9-2.9,1.1-6,3.9-6.9a8.2,8.2,0,0,0,.3,6.5,17,17,0,0,0,4.6,5.7H16.3l-6.7-.4H9.4A6,6,0,0,1,6,15.9a6.3,6.3,0,0,1,1.5-5.4A3.7,3.7,0,0,0,9.9,14.6ZM13,41.1c.4-1.1.3-2.8-1-3.4s-4.3-1-6.1-.1-1,3.4.3,4.5h.1c1.9-.3,3.7.4,5.6.8,3.5.7,7.9.1,9.7-3.4a6.2,6.2,0,0,1-4.7,4,4,4,0,0,0-2.2.9c-.7.6-1.7,1.5-2.7.8a4.3,4.3,0,0,1-.1-.5c-.1-.3-.1-.5-.2-.8l-1.8-.4c-.2.5-.4,1-.9,1.1s-1.5-1.1-1.9-1.9H6.6c1.4,4,5.9,5.8,9.9,5.5a13.9,13.9,0,0,0,9.3-5.5c1-1.7,1.5-3.9.4-5.7C23.6,33.5,13.2,38.9,13,41.1Zm-5.5-3c.7.5.6,1.4.6,2.1l-.6-1c-.3.4-1,.8-1.2.2A.9.9,0,0,1,7.5,38.1Zm3.7,2.2c-.7.4-.9-.5-.8-.9s-1,.6-1.2,1.1,0-1.9.8-2.4S12.3,39.6,11.2,40.3Z" fill="#e0c8a4"/><path d="M21.7,22.6l.4-.5c2,.5,4.1,1,5.7,2.4l.4.6A15.2,15.2,0,0,0,21.7,22.6ZM4.2,26.9a4.5,4.5,0,0,1,2.8.7,8,8,0,0,1,2.3,1.8,7.9,7.9,0,0,0-1.8-2.9A5,5,0,0,0,4,25.3c-.3,0-.7.3-.6.3ZM20.6,20H19a14.3,14.3,0,0,1-3.2-3.4,5,5,0,0,1,3.8.7A4.6,4.6,0,0,1,20.6,20Zm4.5,11.3c.7-.4,2-1.3,1.1-2.1a10.3,10.3,0,0,0-10.4-1.6A9,9,0,0,1,25.1,31.3Z"/><path d="M15.7,29.5c2.1-.9,4.9-.8,6.6.9A8,8,0,0,1,23.9,36h-.5a8.4,8.4,0,0,0-1.3-4.9c-1.5-2.1-4.8-2.3-6.9-.9s-2.2,4.8-.9,7C12.5,34.9,12.9,30.9,15.7,29.5Z" fill="#907755"/></svg>